<svg version="1.0" xmlns="http://www.w3.org/2000/svg"
 x="0px" y="0px" viewBox="0 0 357.000000 502.000000"
 preserveAspectRatio="xMidYMid meet">
<g transform="translate(0.000000,502.000000) scale(0.100000,-0.100000)"
fill="#000000" stroke="none">
<path style="fill:#4FBA6F;" d="M2020 5010 c-203 -21 -385 -76 -571 -171 -145 -75 -259 -160 -374
-280 -189 -197 -308 -426 -362 -696 -27 -134 -24 -404 5 -549 30 -148 73 -277
137 -409 135 -278 271 -419 755 -790 547 -418 739 -619 856 -897 64 -151 78
-230 78 -430 0 -98 4 -178 8 -178 14 0 98 127 133 201 52 111 75 214 82 364
13 301 -38 502 -351 1400 -57 164 -73 259 -56 352 27 157 107 300 238 425 147
140 304 211 472 212 52 0 129 -3 171 -8 63 -7 85 -6 129 9 110 36 190 148 190
264 0 101 -79 345 -157 488 -104 189 -287 375 -489 496 -251 151 -597 227
-894 197z"/>
<path style="fill:#4FBA6F;" d="M579 2311 c-207 -85 -376 -186 -452 -270 -108 -120 -149 -330 -90
-463 48 -107 156 -182 291 -202 61 -8 88 -7 159 7 200 42 298 138 346 341 8
33 12 140 12 296 0 222 -2 248 -19 280 -11 19 -26 40 -35 47 -31 24 -94 13
-212 -36z m-202 -383 c29 -27 32 -101 6 -130 -22 -24 -109 -25 -135 -1 -27 24
-25 100 4 130 29 31 92 32 125 1z"/>
<path style="fill:#4FBA6F;" d="M1365 1686 c-319 -73 -562 -299 -642 -596 -29 -106 -24 -306 10 -447
34 -140 36 -236 6 -296 -12 -23 -63 -85 -115 -138 -82 -85 -134 -151 -134
-170 0 -3 75 -9 168 -12 92 -3 270 -11 396 -18 551 -29 847 44 1065 261 205
204 270 510 174 813 -52 167 -135 300 -256 413 -90 84 -176 136 -282 171 -98
32 -292 41 -390 19z"/>
<path style="fill:#4FBA6F;" d="M384 1196 c-104 -47 -99 -197 9 -250 51 -24 100 -15 144 29 28 28 33
40 33 82 0 106 -97 179 -186 139z"/>
</g>
</svg>
